<?xml version="1.0" encoding="UTF-8" standalone="no"?>
<!DOCTYPE svg PUBLIC "-//W3C//DTD SVG 1.1//EN" "http://www.w3.org/Graphics/SVG/1.1/DTD/svg11.dtd">
<svg width="100%" height="100%" viewBox="0 0 730 101" version="1.1" xmlns="http://www.w3.org/2000/svg" xmlns:xlink="http://www.w3.org/1999/xlink" xml:space="preserve" xmlns:serif="http://www.serif.com/" style="fill-rule:evenodd;clip-rule:evenodd;stroke-linejoin:round;stroke-miterlimit:2;">
    <g transform="matrix(1,0,0,1,-101.25,-196.73)">
        <path d="M417.99,196.73C407.47,196.73 398.94,205.26 398.94,215.78C398.94,226.3 407.47,234.83 417.99,234.83C428.51,234.83 437.04,226.3 437.04,215.78C437.04,205.26 428.51,196.73 417.99,196.73ZM417.99,229.25C410.55,229.25 404.52,223.22 404.52,215.78C404.52,208.34 410.55,202.31 417.99,202.31C425.43,202.31 431.46,208.34 431.46,215.78C431.46,223.22 425.43,229.25 417.99,229.25Z" style="fill:url(#_Linear1);fill-rule:nonzero;"/>
        <g>
            <path d="M153.75,284.8L153.75,296.69L146.56,296.69C139.27,296.69 136.98,293.2 137.08,288.31C133.49,294 128.3,297.29 120.31,297.29C109.23,297.29 101.25,292 101.25,282.22C101.25,271.34 109.43,265.15 124.8,265.15L134.98,265.15L134.98,262.65C134.98,258.06 131.69,255.07 125.8,255.07C120.31,255.07 116.62,257.57 116.02,261.36L102.45,261.36C103.45,251.38 112.63,244.79 126.2,244.79C140.57,244.79 148.86,251.18 148.86,263.45L148.86,281.61C148.86,284.3 149.96,284.8 152.15,284.8L153.75,284.8ZM135,274.53L124.71,274.53C118.82,274.53 115.43,276.92 115.43,281.22C115.43,284.81 118.32,287.11 123.02,287.11C130.41,287.11 134.9,282.52 135,275.53L135,274.53Z" style="fill:rgb(12,16,20);fill-rule:nonzero;"/>
            <path d="M187.97,245.39L187.97,258.17L182.38,258.17C174,258.17 170.8,263.76 170.8,271.54L170.8,296.69L156.73,296.69L156.73,245.39L169.51,245.39L170.81,253.08C173.6,248.49 177.6,245.39 185.58,245.39L187.97,245.39Z" style="fill:rgb(12,16,20);fill-rule:nonzero;"/>
            <path d="M197.65,257.26L189.17,257.26L189.17,245.38L197.65,245.38L197.65,231.01L211.72,231.01L211.72,245.38L223.5,245.38L223.5,257.26L211.72,257.26L211.72,279.72C211.72,283.31 213.12,284.81 216.81,284.81L223.8,284.81L223.8,296.69L212.32,296.69C202.54,296.69 197.65,291.8 197.65,282.02L197.65,257.26Z" style="fill:rgb(12,16,20);fill-rule:nonzero;"/>
            <path d="M226.69,232.01C226.69,227.42 230.28,224.02 234.87,224.02C239.46,224.02 243.05,227.41 243.05,232.01C243.05,236.61 239.46,239.89 234.87,239.89C230.28,239.89 226.69,236.5 226.69,232.01ZM227.79,245.38L241.96,245.38L241.96,296.68L227.79,296.68L227.79,245.38Z" style="fill:rgb(12,16,20);fill-rule:nonzero;"/>
            <path d="M260.12,279.62C260.62,284.11 264.51,287.2 271.4,287.2C277.29,287.2 280.88,285.3 280.88,281.71C280.88,277.52 277.39,277.22 269.1,276.12C257.12,274.72 247.84,272.03 247.84,261.45C247.84,250.87 256.72,244.58 269.9,244.68C283.67,244.68 293.16,250.77 293.85,261.25L280.38,261.25C279.98,257.16 276.09,254.66 270.4,254.66C264.71,254.66 261.32,256.66 261.32,259.95C261.32,263.84 265.71,264.24 273.1,265.14C284.88,266.34 294.66,269.03 294.66,280.61C294.66,290.79 285.08,297.28 271.3,297.28C257.52,297.28 247.35,290.59 246.75,279.61L260.12,279.61L260.12,279.62Z" style="fill:rgb(12,16,20);fill-rule:nonzero;"/>
            <path d="M350.05,284.8L350.05,296.69L342.86,296.69C335.57,296.69 333.28,293.2 333.38,288.31C329.79,294 324.6,297.29 316.61,297.29C305.53,297.29 297.55,292 297.55,282.22C297.55,271.34 305.73,265.15 321.1,265.15L331.28,265.15L331.28,262.65C331.28,258.06 327.99,255.07 322.1,255.07C316.61,255.07 312.92,257.57 312.32,261.36L298.74,261.36C299.74,251.38 308.92,244.79 322.5,244.79C336.87,244.79 345.16,251.18 345.16,263.45L345.16,281.61C345.16,284.3 346.26,284.8 348.45,284.8L350.05,284.8ZM331.3,274.53L321.01,274.53C315.12,274.53 311.73,276.92 311.73,281.22C311.73,284.81 314.62,287.11 319.32,287.11C326.7,287.11 331.2,282.52 331.3,275.53L331.3,274.53Z" style="fill:rgb(12,16,20);fill-rule:nonzero;"/>
            <path d="M403.04,268.24L403.04,296.68L388.97,296.68L388.97,269.63C388.97,260.95 385.68,256.36 378.59,256.36C371.5,256.36 367.11,261.55 367.11,270.43L367.11,296.68L353.04,296.68L353.04,245.38L365.32,245.38L366.62,251.77C369.91,247.78 374.6,244.78 382.49,244.78C393.57,244.78 403.05,250.67 403.05,268.23L403.04,268.24Z" style="fill:rgb(12,16,20);fill-rule:nonzero;"/>
        </g>
        <g>
            <g>
                <path d="M825.12,245.29L824.08,243.22L822.16,243.22L822.16,245.29L821.84,245.29L821.84,240.13L823.85,240.13C824.94,240.13 825.61,240.72 825.61,241.68C825.61,242.26 825.33,242.73 824.84,242.96L824.38,243.18L825.46,245.28L825.13,245.28L825.12,245.29ZM822.16,243.12L823.74,243.12C824.64,243.12 825.26,242.53 825.26,241.68C825.26,240.83 824.64,240.23 823.74,240.23L822.16,240.23L822.16,243.12Z" style="fill:rgb(12,16,20);fill-rule:nonzero;"/>
                <path d="M823.86,239.63L821.34,239.63L821.34,245.79L822.66,245.79L822.66,243.72L823.77,243.72L824.81,245.79L826.27,245.79L825.06,243.41C825.7,243.1 826.12,242.47 826.12,241.68C826.12,240.43 825.21,239.63 823.86,239.63ZM822.66,242.62L822.66,240.73L823.74,240.73C824.36,240.73 824.76,241.1 824.76,241.68C824.76,242.26 824.36,242.62 823.74,242.62L822.66,242.62Z" style="fill:rgb(12,16,20);fill-rule:nonzero;"/>
            </g>
            <path d="M823.81,237.02C826.95,237.02 829.5,239.57 829.5,242.71C829.5,245.85 826.95,248.4 823.81,248.4C820.67,248.4 818.12,245.85 818.12,242.71C818.12,239.57 820.67,237.02 823.81,237.02M823.81,236.02C820.12,236.02 817.12,239.01 817.12,242.71C817.12,246.41 820.11,249.4 823.81,249.4C827.51,249.4 830.5,246.41 830.5,242.71C830.5,239.01 827.51,236.02 823.81,236.02Z" style="fill:rgb(12,16,20);fill-rule:nonzero;"/>
        </g>
        <g>
            <path d="M475.55,268.34L475.55,296.69L467.37,296.69L467.37,268.84C467.37,258.26 462.48,252.67 453.6,252.67C444.02,252.67 438.23,259.76 438.23,271.23L438.23,296.68L430.05,296.68L430.05,245.78L437.14,245.78L438.24,252.67C441.23,248.78 446.42,245.18 455.01,245.18C466.49,245.18 475.57,251.47 475.57,268.33L475.55,268.34Z" style="fill:rgb(12,16,20);fill-rule:nonzero;"/>
            <path d="M484.82,253.27L475.64,253.27L475.64,245.78L484.82,245.78L484.82,231.51L493,231.51L493,245.78L506.18,245.78L506.18,253.27L493,253.27L493,283.31C493,287.6 494.5,289.2 498.89,289.2L506.98,289.2L506.98,296.69L498.1,296.69C488.32,296.69 484.83,292.4 484.83,283.42L484.83,253.28L484.82,253.27Z" style="fill:rgb(12,16,20);fill-rule:nonzero;"/>
            <path d="M505.98,271.24C505.98,255.77 515.76,245.19 530.13,245.19C544.5,245.19 553.88,254.27 554.28,269.34C554.28,270.44 554.18,271.64 554.08,272.83L514.56,272.83L514.56,273.53C514.86,283.21 520.95,290 530.63,290C537.82,290 543.41,286.21 545.1,279.62L553.38,279.62C551.38,289.8 543,297.29 531.22,297.29C515.95,297.29 505.97,286.81 505.97,271.24L505.98,271.24ZM545.5,266.05C544.7,257.27 538.71,252.38 530.23,252.38C522.74,252.38 515.86,257.77 515.06,266.05L545.5,266.05Z" style="fill:rgb(12,16,20);fill-rule:nonzero;"/>
            <path d="M584.52,245.79L584.52,253.77L580.43,253.77C569.75,253.77 566.86,262.65 566.86,270.74L566.86,296.69L558.68,296.69L558.68,245.79L565.77,245.79L566.87,253.48C569.26,249.59 573.16,245.79 582.24,245.79L584.53,245.79L584.52,245.79Z" style="fill:rgb(12,16,20);fill-rule:nonzero;"/>
            <path d="M632.43,289.19L632.43,296.69L627.94,296.69C621.15,296.69 618.86,293.8 618.76,288.8C615.57,293.39 610.48,297.28 601.69,297.28C590.51,297.28 582.93,291.69 582.93,282.41C582.93,272.23 590.02,266.54 603.39,266.54L618.36,266.54L618.36,263.05C618.36,256.46 613.67,252.47 605.68,252.47C598.49,252.47 593.7,255.86 592.71,261.05L584.53,261.05C585.73,251.07 593.81,245.18 606.09,245.18C619.06,245.18 626.55,251.67 626.55,263.54L626.55,285.8C626.55,288.49 627.55,289.19 629.84,289.19L632.43,289.19ZM618.36,273.43L602.59,273.43C595.3,273.43 591.21,276.13 591.21,281.91C591.21,286.9 595.5,290.29 602.29,290.29C612.47,290.29 618.36,284.4 618.36,275.92L618.36,273.42L618.36,273.43Z" style="fill:rgb(12,16,20);fill-rule:nonzero;"/>
            <path d="M631.33,271.34C631.33,255.77 641.41,245.19 656.18,245.19C668.65,245.19 676.54,252.18 678.64,263.35L670.06,263.35C668.56,256.56 663.57,252.47 656.09,252.47C646.31,252.47 639.72,260.25 639.72,271.33C639.72,282.41 646.31,289.99 656.09,289.99C663.38,289.99 668.37,285.8 669.96,279.31L678.64,279.31C676.64,290.29 668.36,297.27 655.98,297.27C641.11,297.27 631.33,287.19 631.33,271.32L631.33,271.34Z" style="fill:rgb(12,16,20);fill-rule:nonzero;"/>
            <path d="M686.41,253.27L677.23,253.27L677.23,245.78L686.41,245.78L686.41,231.51L694.59,231.51L694.59,245.78L707.77,245.78L707.77,253.27L694.59,253.27L694.59,283.31C694.59,287.6 696.09,289.2 700.48,289.2L708.56,289.2L708.56,296.69L699.68,296.69C689.9,296.69 686.41,292.4 686.41,283.42L686.41,253.27Z" style="fill:rgb(12,16,20);fill-rule:nonzero;"/>
            <path d="M709.57,231.91C709.57,228.82 711.87,226.62 714.86,226.62C717.85,226.62 720.15,228.82 720.15,231.91C720.15,235 717.85,237.2 714.86,237.2C711.87,237.2 709.57,235 709.57,231.91ZM710.67,245.78L718.85,245.78L718.85,296.68L710.67,296.68L710.67,245.78Z" style="fill:rgb(12,16,20);fill-rule:nonzero;"/>
            <path d="M719.94,245.79L728.72,245.79L744.09,287.41L759.36,245.79L767.94,245.79L748.88,296.69L739,296.69L719.94,245.79Z" style="fill:rgb(12,16,20);fill-rule:nonzero;"/>
            <path d="M765.05,271.24C765.05,255.77 774.83,245.19 789.2,245.19C803.57,245.19 812.95,254.27 813.35,269.34C813.35,270.44 813.25,271.64 813.15,272.83L773.63,272.83L773.63,273.53C773.93,283.21 780.02,290 789.7,290C796.89,290 802.48,286.21 804.17,279.62L812.45,279.62C810.45,289.8 802.07,297.29 790.29,297.29C775.02,297.29 765.04,286.81 765.04,271.24L765.05,271.24ZM804.57,266.05C803.77,257.27 797.78,252.38 789.3,252.38C781.81,252.38 774.93,257.77 774.13,266.05L804.57,266.05Z" style="fill:rgb(12,16,20);fill-rule:nonzero;"/>
        </g>
        <rect x="413.12" y="245.79" width="8.18" height="50.9"/>
    </g>
    <defs>
        <linearGradient id="_Linear1" x1="0" y1="0" x2="1" y2="0" gradientUnits="userSpaceOnUse" gradientTransform="matrix(38.1,0,0,38.1,398.94,215.78)"><stop offset="0" style="stop-color:rgb(226,102,242);stop-opacity:1"/><stop offset="0.09" style="stop-color:rgb(216,108,240);stop-opacity:1"/><stop offset="0.26" style="stop-color:rgb(189,125,238);stop-opacity:1"/><stop offset="0.46" style="stop-color:rgb(146,152,233);stop-opacity:1"/><stop offset="0.71" style="stop-color:rgb(85,190,227);stop-opacity:1"/><stop offset="0.98" style="stop-color:rgb(10,238,219);stop-opacity:1"/><stop offset="1" style="stop-color:rgb(5,242,219);stop-opacity:1"/></linearGradient>
    </defs>
</svg>
