<?xml version="1.0" encoding="UTF-8" standalone="no"?>
<!DOCTYPE svg PUBLIC "-//W3C//DTD SVG 1.1//EN" "http://www.w3.org/Graphics/SVG/1.1/DTD/svg11.dtd">
<svg width="100%" height="100%" viewBox="0 0 735 101" version="1.1" xmlns="http://www.w3.org/2000/svg" xmlns:xlink="http://www.w3.org/1999/xlink" xml:space="preserve" xmlns:serif="http://www.serif.com/" style="fill-rule:evenodd;clip-rule:evenodd;stroke-miterlimit:10;">
    <g transform="matrix(1,0,0,1,-102.84,-192.58)">
        <path d="M419.58,192.58C409.06,192.58 400.53,201.11 400.53,211.63C400.53,222.15 409.06,230.68 419.58,230.68C430.1,230.68 438.63,222.15 438.63,211.63C438.63,201.11 430.1,192.58 419.58,192.58ZM419.58,225.1C412.14,225.1 406.11,219.07 406.11,211.63C406.11,204.19 412.14,198.16 419.58,198.16C427.02,198.16 433.05,204.19 433.05,211.63C433.05,219.07 427.02,225.1 419.58,225.1Z" style="fill-rule:nonzero;"/>
        <g>
            <path d="M155.34,280.65L155.34,292.54L148.15,292.54C140.86,292.54 138.57,289.05 138.67,284.16C135.08,289.85 129.89,293.14 121.9,293.14C110.82,293.14 102.84,287.85 102.84,278.07C102.84,267.19 111.02,261 126.39,261L136.57,261L136.57,258.5C136.57,253.91 133.28,250.92 127.39,250.92C121.9,250.92 118.21,253.42 117.61,257.21L104.04,257.21C105.04,247.23 114.22,240.64 127.79,240.64C142.16,240.64 150.45,247.03 150.45,259.3L150.45,277.46C150.45,280.15 151.55,280.65 153.74,280.65L155.34,280.65ZM136.59,270.38L126.3,270.38C120.41,270.38 117.02,272.77 117.02,277.07C117.02,280.66 119.91,282.96 124.61,282.96C132,282.96 136.49,278.37 136.59,271.38L136.59,270.38Z" style="fill-rule:nonzero;"/>
            <path d="M189.57,241.24L189.57,254.02L183.98,254.02C175.6,254.02 172.4,259.61 172.4,267.39L172.4,292.54L158.33,292.54L158.33,241.24L171.11,241.24L172.41,248.93C175.2,244.34 179.2,241.24 187.18,241.24L189.57,241.24Z" style="fill-rule:nonzero;"/>
            <path d="M199.25,253.12L190.77,253.12L190.77,241.24L199.25,241.24L199.25,226.87L213.32,226.87L213.32,241.24L225.1,241.24L225.1,253.12L213.32,253.12L213.32,275.58C213.32,279.17 214.72,280.67 218.41,280.67L225.4,280.67L225.4,292.55L213.92,292.55C204.14,292.55 199.25,287.66 199.25,277.88L199.25,253.12Z" style="fill-rule:nonzero;"/>
            <path d="M228.29,227.86C228.29,223.27 231.88,219.87 236.47,219.87C241.06,219.87 244.65,223.26 244.65,227.86C244.65,232.46 241.06,235.74 236.47,235.74C231.88,235.74 228.29,232.35 228.29,227.86ZM229.39,241.23L243.56,241.23L243.56,292.53L229.39,292.53L229.39,241.23Z" style="fill-rule:nonzero;"/>
            <path d="M261.72,275.47C262.22,279.96 266.11,283.05 273,283.05C278.89,283.05 282.48,281.15 282.48,277.56C282.48,273.37 278.99,273.07 270.7,271.97C258.72,270.57 249.44,267.88 249.44,257.3C249.44,246.72 258.32,240.43 271.5,240.53C285.27,240.53 294.76,246.62 295.45,257.1L281.98,257.1C281.58,253.01 277.69,250.51 272,250.51C266.31,250.51 262.92,252.51 262.92,255.8C262.92,259.69 267.31,260.09 274.7,260.99C286.48,262.19 296.26,264.88 296.26,276.46C296.26,286.64 286.68,293.13 272.9,293.13C259.12,293.13 248.95,286.44 248.35,275.46L261.72,275.46L261.72,275.47Z" style="fill-rule:nonzero;"/>
            <path d="M351.64,280.65L351.64,292.54L344.45,292.54C337.16,292.54 334.87,289.05 334.97,284.16C331.38,289.85 326.19,293.14 318.2,293.14C307.12,293.14 299.14,287.85 299.14,278.07C299.14,267.19 307.32,261 322.69,261L332.87,261L332.87,258.5C332.87,253.91 329.58,250.92 323.69,250.92C318.2,250.92 314.51,253.42 313.91,257.21L300.33,257.21C301.33,247.23 310.51,240.64 324.09,240.64C338.46,240.64 346.75,247.03 346.75,259.3L346.75,277.46C346.75,280.15 347.85,280.65 350.04,280.65L351.64,280.65ZM332.89,270.38L322.6,270.38C316.71,270.38 313.32,272.77 313.32,277.07C313.32,280.66 316.21,282.96 320.91,282.96C328.29,282.96 332.79,278.37 332.89,271.38L332.89,270.38Z" style="fill-rule:nonzero;"/>
            <path d="M404.63,264.09L404.63,292.53L390.56,292.53L390.56,265.48C390.56,256.8 387.27,252.21 380.18,252.21C373.09,252.21 368.7,257.4 368.7,266.28L368.7,292.53L354.63,292.53L354.63,241.23L366.91,241.23L368.21,247.62C371.5,243.63 376.19,240.63 384.08,240.63C395.16,240.63 404.64,246.52 404.64,264.08L404.63,264.09Z" style="fill-rule:nonzero;"/>
        </g>
        <g>
            <path d="M822.93,235.48L825.45,235.48C826.8,235.48 827.71,236.28 827.71,237.53C827.71,238.32 827.3,238.95 826.65,239.26L827.86,241.64L826.4,241.64L825.36,239.57L824.25,239.57L824.25,241.64L822.93,241.64L822.93,235.48ZM824.26,236.58L824.26,238.47L825.34,238.47C825.96,238.47 826.36,238.1 826.36,237.53C826.36,236.96 825.96,236.58 825.34,236.58L824.26,236.58Z" style="fill-rule:nonzero;"/>
            <circle cx="825.4" cy="238.56" r="6.69" style="fill:none;stroke:black;stroke-width:1px;"/>
        </g>
        <g>
            <path d="M477.14,264.19L477.14,292.54L468.96,292.54L468.96,264.69C468.96,254.11 464.07,248.52 455.19,248.52C445.61,248.52 439.82,255.61 439.82,267.08L439.82,292.53L431.64,292.53L431.64,241.63L438.73,241.63L439.83,248.52C442.82,244.63 448.01,241.03 456.6,241.03C468.08,241.03 477.16,247.32 477.16,264.18L477.14,264.19Z" style="fill-rule:nonzero;"/>
            <path d="M486.42,249.12L477.24,249.12L477.24,241.63L486.42,241.63L486.42,227.36L494.6,227.36L494.6,241.63L507.78,241.63L507.78,249.12L494.6,249.12L494.6,279.16C494.6,283.45 496.1,285.05 500.49,285.05L508.58,285.05L508.58,292.54L499.7,292.54C489.92,292.54 486.43,288.25 486.43,279.27L486.43,249.13L486.42,249.12Z" style="fill-rule:nonzero;"/>
            <path d="M507.58,267.09C507.58,251.62 517.36,241.04 531.73,241.04C546.1,241.04 555.48,250.12 555.88,265.19C555.88,266.29 555.78,267.49 555.68,268.68L516.16,268.68L516.16,269.38C516.46,279.06 522.55,285.85 532.23,285.85C539.42,285.85 545.01,282.06 546.7,275.47L554.98,275.47C552.98,285.65 544.6,293.14 532.82,293.14C517.55,293.14 507.57,282.66 507.57,267.09L507.58,267.09ZM547.1,261.9C546.3,253.12 540.31,248.23 531.83,248.23C524.34,248.23 517.46,253.62 516.66,261.9L547.1,261.9Z" style="fill-rule:nonzero;"/>
            <path d="M586.12,241.64L586.12,249.62L582.03,249.62C571.35,249.62 568.46,258.5 568.46,266.59L568.46,292.54L560.28,292.54L560.28,241.64L567.37,241.64L568.47,249.33C570.86,245.44 574.76,241.64 583.84,241.64L586.13,241.64L586.12,241.64Z" style="fill-rule:nonzero;"/>
            <path d="M634.03,285.04L634.03,292.54L629.54,292.54C622.75,292.54 620.46,289.65 620.36,284.65C617.17,289.24 612.08,293.13 603.29,293.13C592.11,293.13 584.53,287.54 584.53,278.26C584.53,268.08 591.62,262.39 604.99,262.39L619.96,262.39L619.96,258.9C619.96,252.31 615.27,248.32 607.28,248.32C600.09,248.32 595.3,251.71 594.31,256.9L586.13,256.9C587.33,246.92 595.41,241.03 607.69,241.03C620.66,241.03 628.15,247.52 628.15,259.39L628.15,281.65C628.15,284.34 629.15,285.04 631.44,285.04L634.03,285.04ZM619.96,269.28L604.19,269.28C596.9,269.28 592.81,271.98 592.81,277.76C592.81,282.75 597.1,286.14 603.89,286.14C614.07,286.14 619.96,280.25 619.96,271.77L619.96,269.27L619.96,269.28Z" style="fill-rule:nonzero;"/>
            <path d="M632.92,267.19C632.92,251.62 643,241.04 657.77,241.04C670.24,241.04 678.13,248.03 680.23,259.2L671.65,259.2C670.15,252.41 665.16,248.32 657.68,248.32C647.9,248.32 641.31,256.1 641.31,267.18C641.31,278.26 647.9,285.84 657.68,285.84C664.97,285.84 669.96,281.65 671.55,275.16L680.23,275.16C678.23,286.14 669.95,293.12 657.57,293.12C642.7,293.12 632.92,283.04 632.92,267.17L632.92,267.19Z" style="fill-rule:nonzero;"/>
            <path d="M688.01,249.12L678.83,249.12L678.83,241.63L688.01,241.63L688.01,227.36L696.19,227.36L696.19,241.63L709.37,241.63L709.37,249.12L696.19,249.12L696.19,279.16C696.19,283.45 697.69,285.05 702.08,285.05L710.16,285.05L710.16,292.54L701.28,292.54C691.5,292.54 688.01,288.25 688.01,279.27L688.01,249.12Z" style="fill-rule:nonzero;"/>
            <path d="M711.16,227.76C711.16,224.67 713.46,222.47 716.45,222.47C719.44,222.47 721.74,224.67 721.74,227.76C721.74,230.85 719.44,233.05 716.45,233.05C713.46,233.05 711.16,230.85 711.16,227.76ZM712.26,241.63L720.44,241.63L720.44,292.53L712.26,292.53L712.26,241.63Z" style="fill-rule:nonzero;"/>
            <path d="M721.54,241.64L730.32,241.64L745.69,283.26L760.96,241.64L769.54,241.64L750.48,292.54L740.6,292.54L721.54,241.64Z" style="fill-rule:nonzero;"/>
            <path d="M766.65,267.09C766.65,251.62 776.43,241.04 790.8,241.04C805.17,241.04 814.55,250.12 814.95,265.19C814.95,266.29 814.85,267.49 814.75,268.68L775.23,268.68L775.23,269.38C775.53,279.06 781.62,285.85 791.3,285.85C798.49,285.85 804.08,282.06 805.77,275.47L814.05,275.47C812.05,285.65 803.67,293.14 791.89,293.14C776.62,293.14 766.64,282.66 766.64,267.09L766.65,267.09ZM806.17,261.9C805.37,253.12 799.38,248.23 790.9,248.23C783.41,248.23 776.53,253.62 775.73,261.9L806.17,261.9Z" style="fill-rule:nonzero;"/>
        </g>
        <rect x="414.72" y="241.64" width="8.18" height="50.9"/>
    </g>
</svg>
