<?xml version="1.0" encoding="UTF-8" standalone="no"?>
<!DOCTYPE svg PUBLIC "-//W3C//DTD SVG 1.1//EN" "http://www.w3.org/Graphics/SVG/1.1/DTD/svg11.dtd">
<svg width="100%" height="100%" viewBox="0 0 268 268" version="1.1" xmlns="http://www.w3.org/2000/svg" xmlns:xlink="http://www.w3.org/1999/xlink" xml:space="preserve" xmlns:serif="http://www.serif.com/" style="fill-rule:evenodd;clip-rule:evenodd;stroke-linejoin:round;stroke-miterlimit:2;">
    <g transform="matrix(1,0,0,1,-334.6,-133.15)">
        <path d="M468.6,133.15C394.59,133.15 334.6,193.14 334.6,267.15C334.6,341.16 394.59,401.15 468.6,401.15C542.61,401.15 602.6,341.16 602.6,267.15C602.6,193.14 542.61,133.15 468.6,133.15ZM468.6,361.91C416.27,361.91 373.85,319.49 373.85,267.16C373.85,214.83 416.27,172.41 468.6,172.41C520.93,172.41 563.35,214.83 563.35,267.16C563.35,319.49 520.93,361.91 468.6,361.91Z" style="fill:url(#_Linear1);fill-rule:nonzero;"/>
    </g>
    <defs>
        <linearGradient id="_Linear1" x1="0" y1="0" x2="1" y2="0" gradientUnits="userSpaceOnUse" gradientTransform="matrix(268.01,0,0,268.01,334.59,267.15)"><stop offset="0" style="stop-color:rgb(226,102,242);stop-opacity:1"/><stop offset="0.09" style="stop-color:rgb(216,108,240);stop-opacity:1"/><stop offset="0.26" style="stop-color:rgb(189,125,238);stop-opacity:1"/><stop offset="0.46" style="stop-color:rgb(146,152,233);stop-opacity:1"/><stop offset="0.71" style="stop-color:rgb(85,190,227);stop-opacity:1"/><stop offset="0.98" style="stop-color:rgb(10,238,219);stop-opacity:1"/><stop offset="1" style="stop-color:rgb(5,242,219);stop-opacity:1"/></linearGradient>
    </defs>
</svg>
